<svg width="299" height="302" viewBox="0 0 299 302" fill="none" xmlns="http://www.w3.org/2000/svg">
<g filter="url(#filter0_d_120_6410)">
<g filter="url(#filter1_i_120_6410)">
<path d="M26 101.484C26 95.7922 29.0241 90.5287 33.9415 87.6618L141.909 24.7172C146.906 21.8036 153.087 21.8145 158.074 24.7457L265.107 87.6529C269.997 90.5268 273 95.7749 273 101.447V256C273 264.837 265.837 272 257 272H42C33.1634 272 26 264.837 26 256V101.484Z" fill="url(#paint0_linear_120_6410)"/>
</g>
<g filter="url(#filter2_i_120_6410)">
<path d="M273 146.5V256C273 264.837 265.837 272 257 272H92.8116C75.984 272 70.5617 249.359 85.5639 241.736L273 146.5Z" fill="url(#paint1_linear_120_6410)"/>
</g>
<g filter="url(#filter3_i_120_6410)">
<path d="M26 146.5V256C26 264.837 33.1635 272 42 272H206.188C223.016 272 228.438 249.359 213.436 241.736L26 146.5Z" fill="#F6ACAC"/>
<path d="M26 146.5V256C26 264.837 33.1635 272 42 272H206.188C223.016 272 228.438 249.359 213.436 241.736L26 146.5Z" fill="url(#paint2_linear_120_6410)"/>
<path d="M26 146.5V256C26 264.837 33.1635 272 42 272H206.188C223.016 272 228.438 249.359 213.436 241.736L26 146.5Z" fill="url(#paint3_linear_120_6410)"/>
</g>
<rect x="45" y="69.249" width="204" height="133" transform="rotate(-6.26133 45 69.249)" fill="white"/>
<rect x="58.7957" y="78.9493" width="178.69" height="110.706" transform="rotate(-6.26133 58.7957 78.9493)" stroke="url(#paint4_linear_120_6410)" stroke-dasharray="3 3"/>
<g filter="url(#filter4_i_120_6410)">
<path d="M26 243.984C26 238.292 29.0241 233.029 33.9415 230.162L141.909 167.217C146.906 164.304 153.087 164.315 158.074 167.246L265.107 230.153C269.997 233.027 273 238.275 273 243.947V255.992C273 264.829 265.837 271.992 257 271.992H42C33.1634 271.992 26 264.829 26 255.992V243.984Z" fill="#F5C8C8"/>
<path d="M26 243.984C26 238.292 29.0241 233.029 33.9415 230.162L141.909 167.217C146.906 164.304 153.087 164.315 158.074 167.246L265.107 230.153C269.997 233.027 273 238.275 273 243.947V255.992C273 264.829 265.837 271.992 257 271.992H42C33.1634 271.992 26 264.829 26 255.992V243.984Z" fill="url(#paint5_linear_120_6410)"/>
</g>
<path d="M106.622 125.102L104.57 125.33L103.826 123.191C104.518 123.194 105.111 123.169 105.604 123.114C106.192 123.049 106.454 122.722 106.389 122.133L105.816 116.981C105.028 117.423 104.176 117.864 103.259 118.304L102.432 116.077C103.605 115.625 104.649 115.163 105.562 114.691L105.008 109.706L102.289 110.008L102.048 107.837L104.767 107.535L104.304 103.361L106.546 103.112L107.01 107.286L109.538 107.005L109.779 109.176L107.251 109.457L107.693 113.44C108.711 112.748 109.464 112.213 109.954 111.837L110.211 114.151C109.393 114.757 108.637 115.275 107.945 115.706L108.694 122.457C108.871 124.047 108.18 124.929 106.622 125.102ZM110.828 112.754L122.493 111.459L122.726 113.558C122.293 115.747 121.367 117.701 119.948 119.42C121.596 120.203 123.51 120.836 125.689 121.318L124.689 123.409C122.265 122.745 120.187 121.937 118.456 120.986C116.789 122.508 114.68 123.805 112.127 124.877L110.674 123.106C112.95 122.145 114.868 121.007 116.428 119.69C114.554 118.321 113.206 116.692 112.384 114.803L111.072 114.949L110.828 112.754ZM114.483 114.57C115.239 116.015 116.375 117.249 117.889 118.272C119.076 116.933 119.929 115.478 120.447 113.907L114.483 114.57ZM111.452 103.364L119.991 102.416L120.545 107.401C120.603 107.926 120.966 108.151 121.634 108.077L123.447 107.875L123.68 109.975L121.247 110.245C119.514 110.437 118.56 109.746 118.385 108.172L118.009 104.785L113.906 105.24L114.028 106.338C114.282 108.628 113.375 110.531 111.306 112.049L109.609 110.475C111.254 109.487 111.997 108.27 111.836 106.823L111.452 103.364ZM127.418 101.011C129.13 102.077 130.629 103.182 131.915 104.327L130.492 106.079C129.441 105.02 127.954 103.882 126.031 102.662L127.418 101.011ZM143.459 120.866C142.664 120.954 141.247 121.095 139.208 121.29C137.696 121.442 136.416 121.447 135.37 121.305C134.4 121.123 133.504 120.659 132.68 119.914C132.302 119.553 131.978 119.388 131.708 119.418C131.199 119.475 130.459 120.643 129.489 122.924L127.647 121.559C128.624 119.487 129.564 118.159 130.465 117.576L129.715 110.826L126.519 111.181L126.286 109.081L131.605 108.491L132.609 117.531C132.627 117.545 132.662 117.574 132.715 117.616C132.766 117.642 132.81 117.678 132.847 117.722C132.899 117.748 132.943 117.784 132.98 117.828C133.623 118.4 134.248 118.814 134.856 119.068C135.643 119.335 136.73 119.416 138.119 119.31C139.903 119.144 141.503 118.982 142.919 118.825C143.682 118.74 144.873 118.592 146.491 118.38C147.539 118.247 148.457 118.105 149.245 117.953L148.945 120.257L143.459 120.866ZM138.764 104.46L133.444 105.051L133.227 103.095L136.543 102.726C136.032 101.898 135.491 101.153 134.918 100.492L136.644 99.7209C137.354 100.608 137.988 101.536 138.546 102.504L140.932 102.239C141.306 101.409 141.66 100.387 141.992 99.1752L143.906 99.4457C143.653 100.359 143.345 101.214 142.983 102.011L146.108 101.664L146.746 107.413L141.26 108.022L141.464 109.859L147.69 109.167C148.011 112.062 148.049 113.925 147.803 114.757C147.51 115.594 146.738 116.107 145.487 116.294C144.962 116.352 144.475 116.382 144.024 116.384L143.269 114.367C143.914 114.376 144.459 114.356 144.904 114.306C145.476 114.243 145.808 113.964 145.898 113.471C145.969 112.948 145.952 112.218 145.848 111.28L141.673 111.743L142.381 118.112L140.305 118.343L139.733 113.19C138.622 115.068 136.957 116.75 134.74 118.236L133.356 116.434C135.837 115.144 137.663 113.686 138.835 112.058L133.849 112.612L134.107 106.885L138.973 106.344L138.764 104.46ZM139.185 108.253L136.084 108.597L135.93 110.473L139.389 110.089L139.185 108.253ZM141.048 106.114L144.578 105.722L144.369 103.837L140.839 104.229L141.048 106.114ZM166.015 96.314C167.224 97.0491 168.247 97.7886 169.087 98.5326L168.111 99.7517L170.974 99.4338L171.215 101.604L164.106 102.394C164.596 105.205 165.125 107.36 165.694 108.858C165.81 109.183 165.966 109.568 166.16 110.014C166.964 108.121 167.576 106.017 167.994 103.701L170.168 104.353C169.544 107.577 168.625 110.32 167.411 112.579C167.725 113.092 168.042 113.548 168.36 113.947C169.21 114.931 169.825 115.402 170.207 115.36C170.509 115.326 170.689 114.123 170.748 111.75L172.921 112.619C172.684 115.994 171.993 117.745 170.848 117.872C169.799 117.989 168.623 117.403 167.321 116.115C166.921 115.709 166.521 115.222 166.12 114.655C164.728 116.612 163.026 118.178 161.015 119.351L159.515 117.585C161.706 116.296 163.473 114.594 164.816 112.481C164.426 111.72 164.028 110.822 163.624 109.788C162.905 107.952 162.294 105.573 161.793 102.651L154.112 103.504L154.499 106.986L160.343 106.337C160.774 110.652 160.862 113.403 160.607 114.591C160.335 115.619 159.581 116.218 158.344 116.387C157.851 116.442 157.187 116.476 156.351 116.488L155.431 114.514C156.71 114.436 157.517 114.378 157.851 114.341C158.263 114.28 158.511 113.978 158.596 113.438C158.663 112.883 158.577 111.315 158.339 108.733L154.737 109.133L154.753 109.276C155.143 113.66 154.574 117.305 153.046 120.212L151.159 118.876C152.411 116.531 152.854 113.415 152.487 109.528L151.605 101.585L161.432 100.493C161.318 99.7496 161.172 98.5825 160.995 96.9923L163.285 96.738C163.382 97.6126 163.544 98.7779 163.77 100.234L167.443 99.8258C166.657 99.1243 165.755 98.4679 164.737 97.8565L166.015 96.314ZM176.807 99.9933L173.563 100.354L173.322 98.1829L182.076 97.2107L182.317 99.3813L179.073 99.7416L180.215 110.022C181.445 109.499 182.578 108.979 183.615 108.462L183.867 110.728C181.164 112.042 178.337 113.193 175.388 114.181L174.562 111.954C175.593 111.679 176.745 111.317 178.015 110.87L176.807 99.9933ZM185.864 94.3511L188.154 94.0968L188.667 98.7244L194.655 98.0594C195.518 105.836 195.933 110.659 195.9 112.53C195.781 114.363 194.505 115.414 192.072 115.684C191.754 115.719 190.995 115.764 189.793 115.817L189.009 113.755C190.083 113.716 190.898 113.665 191.455 113.604C192.822 113.452 193.558 112.823 193.66 111.717C193.678 110.717 193.351 106.978 192.68 100.5L188.911 100.919L188.919 100.99C189.592 107.918 188.296 113.206 185.03 116.853L182.987 115.413C186.061 112.222 187.276 107.5 186.629 101.245L186.621 101.173L183.019 101.573L182.776 99.3787L186.378 98.9787L185.864 94.3511Z" fill="url(#paint6_linear_120_6410)"/>
<path d="M103.894 145.186L102.94 145.292L102.672 144.512C103.01 144.515 103.295 144.504 103.525 144.478C103.748 144.453 103.843 144.29 103.809 143.988L103.473 140.958L104.331 140.863L104.69 144.095C104.764 144.755 104.498 145.119 103.894 145.186ZM98.6237 142.306C98.3189 142.75 98.0021 143.16 97.6735 143.534L97.0639 142.938C98.034 141.888 98.7806 140.566 99.3037 138.97L100.158 139.057C99.919 139.8 99.6442 140.478 99.3341 141.092L99.84 145.648L99.0052 145.741L98.6237 142.306ZM101.986 138.66L102.817 138.749C102.745 138.975 102.632 139.297 102.477 139.717L107.26 139.185L107.32 139.722C107.23 140.36 107.1 140.966 106.93 141.54L106.132 141.424C106.295 141.003 106.414 140.551 106.489 140.068L102.088 140.557C101.731 141.256 101.281 141.918 100.739 142.542L100.142 141.956C100.953 141.069 101.568 139.971 101.986 138.66ZM98.87 146.372L99.7115 146.447C99.5462 147.641 99.2595 148.683 98.8513 149.573L98.0721 149.189C98.4697 148.348 98.7356 147.409 98.87 146.372ZM105.127 149.226L102.074 149.565C101.343 149.647 100.934 149.306 100.85 148.542L100.57 146.026L101.441 145.929L101.7 148.267C101.738 148.609 101.92 148.761 102.246 148.725L104.87 148.434C105.101 148.408 105.264 148.318 105.359 148.162C105.477 147.988 105.515 147.501 105.475 146.7L106.315 146.873C106.352 147.931 106.263 148.585 106.05 148.834C105.872 149.047 105.565 149.178 105.127 149.226ZM106.724 145.125C107.576 146.053 108.258 146.906 108.772 147.687L108.124 148.266C107.609 147.47 106.924 146.592 106.068 145.632L106.724 145.125ZM102.061 142.274L102.789 142.519C102.431 143.501 101.994 144.354 101.479 145.08L100.773 144.699C101.298 143.989 101.727 143.181 102.061 142.274ZM106.02 141.823C106.662 142.46 107.255 143.203 107.8 144.052L107.114 144.502C106.587 143.667 105.991 142.904 105.326 142.213L106.02 141.823ZM103.015 145.428C103.687 146.038 104.206 146.584 104.574 147.066L103.957 147.606C103.544 147.072 103.023 146.51 102.394 145.92L103.015 145.428ZM117.625 141.85L117.338 139.262L118.161 139.17L118.528 142.474L114.699 142.899C114.641 143.171 114.577 143.46 114.506 143.766L119.36 143.227L119.755 146.781C119.827 147.433 119.529 147.796 118.862 147.87L117.86 147.981L117.555 147.194L118.501 147.125C118.803 147.092 118.94 146.948 118.912 146.693L118.623 144.093L116.441 144.336C117.008 145.021 117.544 145.754 118.049 146.535L117.396 146.958C117.346 146.867 117.272 146.747 117.175 146.596C117.077 146.438 117.023 146.352 117.013 146.337C116.054 146.62 114.621 146.981 112.714 147.418L112.425 146.665C112.605 146.621 112.723 146.56 112.779 146.481C113.017 146.012 113.247 145.407 113.471 144.665L111.205 144.917L111.622 148.674L110.799 148.765L110.296 144.233L113.683 143.857C113.711 143.749 113.746 143.592 113.788 143.387C113.828 143.173 113.854 143.041 113.865 142.992L110.931 143.318L110.564 140.014L111.387 139.923L111.674 142.511L117.625 141.85ZM116.178 144.365L114.294 144.574C114.107 145.215 113.883 145.839 113.621 146.448C114.713 146.214 115.7 145.967 116.581 145.708C116.278 145.299 116.005 144.939 115.761 144.628L116.178 144.365ZM112.41 139.567C113.138 139.744 113.891 139.97 114.67 140.246C115.136 139.872 115.543 139.481 115.892 139.072L116.542 139.374C116.177 139.785 115.8 140.165 115.412 140.514C115.891 140.694 116.416 140.921 116.985 141.196L116.658 141.836C116.002 141.507 115.379 141.23 114.791 141.005C114.18 141.444 113.434 141.872 112.555 142.292L112.105 141.714C112.835 141.408 113.471 141.076 114.01 140.718C113.299 140.475 112.663 140.288 112.101 140.157L112.41 139.567ZM114.264 137.237C114.438 137.499 114.606 137.814 114.767 138.183L119.323 137.677L119.412 138.476L109.179 139.612L109.09 138.813L113.909 138.278C113.779 138.051 113.608 137.784 113.397 137.478L114.264 137.237ZM121.842 140.898C122.312 140.202 123.012 139.802 123.943 139.699C124.873 139.596 125.644 139.832 126.255 140.408C126.848 140.962 127.195 141.7 127.298 142.623C127.399 143.537 127.225 144.325 126.776 144.987C126.283 145.694 125.579 146.098 124.665 146.199C123.742 146.302 122.971 146.061 122.351 145.478C121.76 144.94 121.413 144.21 121.311 143.288C121.208 142.365 121.385 141.569 121.842 140.898ZM124.031 140.498C123.371 140.572 122.89 140.879 122.588 141.419C122.312 141.901 122.212 142.487 122.289 143.179C122.365 143.863 122.59 144.409 122.966 144.818C123.379 145.279 123.916 145.473 124.576 145.4C125.22 145.329 125.705 145.021 126.031 144.478C126.306 143.981 126.406 143.398 126.332 142.73C126.257 142.054 126.031 141.504 125.653 141.079C125.216 140.62 124.675 140.427 124.031 140.498ZM130.402 136.772L131.583 136.641L131.674 137.464L130.613 137.582C130.335 137.613 130.147 137.702 130.051 137.85C129.946 137.99 129.91 138.211 129.944 138.514L130.019 139.193L131.761 139L131.849 139.799L130.108 139.992L130.704 145.359L129.75 145.465L129.154 140.098L127.603 140.271L127.515 139.472L129.065 139.299L128.987 138.596C128.93 138.079 129.016 137.663 129.247 137.347C129.484 137.023 129.87 136.831 130.402 136.772ZM134.852 136.278L136.032 136.147L136.124 136.97L135.062 137.088C134.784 137.119 134.597 137.208 134.5 137.355C134.395 137.496 134.359 137.717 134.393 138.019L134.468 138.699L136.21 138.506L136.298 139.305L134.557 139.498L135.153 144.865L134.199 144.971L133.603 139.604L132.053 139.776L131.964 138.977L133.514 138.805L133.436 138.102C133.379 137.585 133.465 137.169 133.696 136.853C133.934 136.529 134.319 136.337 134.852 136.278ZM139.615 137.959C140.609 137.848 141.393 138.099 141.968 138.711C142.488 139.257 142.819 140.07 142.963 141.149L138.097 141.689C138.223 142.383 138.469 142.899 138.837 143.237C139.213 143.581 139.695 143.721 140.284 143.656C140.785 143.6 141.18 143.427 141.47 143.138C141.701 142.903 141.872 142.558 141.983 142.103L142.937 141.997C142.859 142.601 142.635 143.117 142.263 143.544C141.79 144.064 141.16 144.367 140.372 144.455C139.49 144.553 138.75 144.341 138.153 143.82C137.547 143.291 137.188 142.526 137.077 141.525C136.974 140.602 137.148 139.814 137.599 139.16C138.052 138.458 138.724 138.058 139.615 137.959ZM139.727 138.755C139.179 138.816 138.757 139.044 138.463 139.439C138.176 139.825 138.035 140.328 138.039 140.947L141.891 140.519C141.625 139.212 140.904 138.624 139.727 138.755ZM146.397 137.205C146.739 137.167 147.027 137.184 147.26 137.254L147.366 138.209C147.07 138.153 146.759 138.143 146.433 138.179C145.948 138.233 145.57 138.489 145.299 138.945C145.017 139.379 144.908 139.886 144.973 140.467L145.335 143.734L144.393 143.839L143.708 137.673L144.651 137.568L144.77 138.642C144.896 138.257 145.08 137.951 145.32 137.723C145.617 137.425 145.976 137.252 146.397 137.205ZM149.4 134.976L148.554 135.07L148.462 134.247L156.954 133.304L157.041 134.091C156.607 136.49 155.711 138.566 154.352 140.318C155.032 140.782 155.719 141.173 156.414 141.49C157.304 141.89 158.3 142.234 159.402 142.522L158.988 143.353C157.833 143.031 156.763 142.634 155.777 142.164C155.08 141.831 154.42 141.438 153.798 140.984C152.633 142.304 151.185 143.435 149.454 144.376L148.865 143.632C150.56 142.736 151.967 141.674 153.087 140.447C153.078 140.44 153.061 140.43 153.035 140.416C153.017 140.394 152.999 140.38 152.982 140.374C152.964 140.36 152.951 140.345 152.941 140.33C152.089 139.62 151.353 138.792 150.733 137.847C150.156 136.993 149.711 136.036 149.4 134.976ZM153.654 139.792C154.924 138.178 155.744 136.324 156.115 134.231L150.235 134.884C150.572 135.957 151.042 136.891 151.645 137.685C152.254 138.527 152.923 139.229 153.654 139.792ZM167.474 135.625L165.137 135.885C165.256 137.828 164.971 139.433 164.283 140.7L163.618 140.146C164.234 139.024 164.47 137.524 164.326 135.649L163.983 132.56C165.823 132.315 167.453 131.913 168.871 131.353L169.36 132.059C168.025 132.578 166.526 132.958 164.863 133.199L165.069 135.059L170.293 134.479L170.385 135.302L168.309 135.532L168.867 140.554L168.032 140.646L167.474 135.625ZM160.399 132.366C161.256 132.907 161.994 133.465 162.614 134.04L162.061 134.717C161.499 134.152 160.771 133.577 159.877 132.992L160.399 132.366ZM168.502 142.164C168.105 142.208 167.404 142.278 166.401 142.373C165.643 142.433 165.019 142.43 164.528 142.364C164.051 142.272 163.601 142.024 163.178 141.62C163.005 141.438 162.843 141.355 162.692 141.372C162.413 141.403 162.005 142.004 161.467 143.174L160.758 142.662C161.275 141.59 161.768 140.919 162.237 140.65L161.834 137.024L160.129 137.214L160.041 136.427L162.546 136.148L163.043 140.621C163.137 140.675 163.243 140.756 163.359 140.863C163.692 141.173 164.026 141.389 164.361 141.513C164.721 141.634 165.26 141.667 165.978 141.611C166.807 141.535 167.579 141.457 168.294 141.378C168.485 141.357 168.771 141.321 169.152 141.271C169.541 141.227 169.836 141.195 170.034 141.173C170.693 141.083 171.14 141.018 171.377 140.975L171.258 141.858L168.502 142.164ZM176.712 134.225L177.655 134.12L178.293 139.869C178.327 140.171 178.304 140.403 178.225 140.565C178.155 140.725 178.004 140.855 177.773 140.953C177.551 141.05 177.237 141.125 176.833 141.178C176.429 141.239 175.925 141.303 175.321 141.37C175.283 141.246 175.214 141.1 175.115 140.934C175.025 140.775 174.937 140.636 174.851 140.517C175.186 140.488 175.501 140.457 175.795 140.424C176.098 140.398 176.361 140.373 176.583 140.349C176.806 140.324 176.961 140.303 177.047 140.285C177.175 140.271 177.259 140.237 177.302 140.184C177.345 140.139 177.361 140.065 177.349 139.962L176.712 134.225ZM172.023 131.57L180.646 130.613L180.744 131.495L172.121 132.453L172.023 131.57ZM180.324 130.648L180.55 130.623L180.758 130.54L181.507 130.976C181.204 131.436 180.842 131.911 180.422 132.4C180 132.882 179.552 133.342 179.078 133.781C178.603 134.22 178.14 134.61 177.686 134.95C177.631 134.884 177.563 134.819 177.484 134.755C177.403 134.683 177.319 134.616 177.232 134.554C177.151 134.482 177.077 134.426 177.008 134.385C177.321 134.157 177.642 133.9 177.973 133.614C178.302 133.32 178.614 133.012 178.908 132.689C179.21 132.366 179.485 132.05 179.733 131.74C179.98 131.431 180.185 131.143 180.349 130.875L180.324 130.648ZM183.852 134.591L194.574 133.4L194.67 134.259L183.948 135.45L183.852 134.591ZM200.225 127.75L201.096 127.653L201.256 129.096L204.87 128.695L204.961 129.518L201.348 129.919L201.53 131.565L206.325 131.033L206.418 131.868L201.683 132.393L202.083 135.995L201.224 136.091L200.824 132.489L195.827 133.044L195.734 132.209L197.559 132.006L197.228 129.025L198.098 128.928L198.429 131.91L200.66 131.662L200.225 127.75ZM204.737 132.936L205.571 133.266C204.434 136.732 201.74 138.71 197.488 139.198L197.087 138.41C201.213 137.951 203.764 136.127 204.737 132.936ZM198.749 133.263L199.418 133.744C198.819 134.945 198.048 136.009 197.104 136.935L196.491 136.302C197.428 135.393 198.181 134.38 198.749 133.263Z" fill="#999999"/>
<line x1="83.9737" y1="133.752" x2="225.974" y2="118.752" stroke="#F5F5F5" stroke-width="0.5"/>
<line x1="86.9737" y1="158.752" x2="228.974" y2="143.752" stroke="#F5F5F5" stroke-width="0.5"/>
</g>
<defs>
<filter id="filter0_d_120_6410" x="0" y="-2" width="299" height="304" filterUnits="userSpaceOnUse" color-interpolation-filters="sRGB">
<feFlood flood-opacity="0" result="BackgroundImageFix"/>
<feColorMatrix in="SourceAlpha" type="matrix" values="0 0 0 0 0 0 0 0 0 0 0 0 0 0 0 0 0 0 127 0" result="hardAlpha"/>
<feOffset dy="4"/>
<feGaussianBlur stdDeviation="13"/>
<feComposite in2="hardAlpha" operator="out"/>
<feColorMatrix type="matrix" values="0 0 0 0 1 0 0 0 0 1 0 0 0 0 1 0 0 0 0.5 0"/>
<feBlend mode="normal" in2="BackgroundImageFix" result="effect1_dropShadow_120_6410"/>
<feBlend mode="normal" in="SourceGraphic" in2="effect1_dropShadow_120_6410" result="shape"/>
</filter>
<filter id="filter1_i_120_6410" x="26" y="22.5396" width="247" height="251.46" filterUnits="userSpaceOnUse" color-interpolation-filters="sRGB">
<feFlood flood-opacity="0" result="BackgroundImageFix"/>
<feBlend mode="normal" in="SourceGraphic" in2="BackgroundImageFix" result="shape"/>
<feColorMatrix in="SourceAlpha" type="matrix" values="0 0 0 0 0 0 0 0 0 0 0 0 0 0 0 0 0 0 127 0" result="hardAlpha"/>
<feOffset dy="2"/>
<feGaussianBlur stdDeviation="2"/>
<feComposite in2="hardAlpha" operator="arithmetic" k2="-1" k3="1"/>
<feColorMatrix type="matrix" values="0 0 0 0 1 0 0 0 0 1 0 0 0 0 1 0 0 0 0.4 0"/>
<feBlend mode="normal" in2="shape" result="effect1_innerShadow_120_6410"/>
</filter>
<filter id="filter2_i_120_6410" x="76.7871" y="146.5" width="196.213" height="127.5" filterUnits="userSpaceOnUse" color-interpolation-filters="sRGB">
<feFlood flood-opacity="0" result="BackgroundImageFix"/>
<feBlend mode="normal" in="SourceGraphic" in2="BackgroundImageFix" result="shape"/>
<feColorMatrix in="SourceAlpha" type="matrix" values="0 0 0 0 0 0 0 0 0 0 0 0 0 0 0 0 0 0 127 0" result="hardAlpha"/>
<feOffset dy="2"/>
<feGaussianBlur stdDeviation="2"/>
<feComposite in2="hardAlpha" operator="arithmetic" k2="-1" k3="1"/>
<feColorMatrix type="matrix" values="0 0 0 0 1 0 0 0 0 1 0 0 0 0 1 0 0 0 0.4 0"/>
<feBlend mode="normal" in2="shape" result="effect1_innerShadow_120_6410"/>
</filter>
<filter id="filter3_i_120_6410" x="26" y="146.5" width="196.213" height="127.5" filterUnits="userSpaceOnUse" color-interpolation-filters="sRGB">
<feFlood flood-opacity="0" result="BackgroundImageFix"/>
<feBlend mode="normal" in="SourceGraphic" in2="BackgroundImageFix" result="shape"/>
<feColorMatrix in="SourceAlpha" type="matrix" values="0 0 0 0 0 0 0 0 0 0 0 0 0 0 0 0 0 0 127 0" result="hardAlpha"/>
<feOffset dy="2"/>
<feGaussianBlur stdDeviation="2"/>
<feComposite in2="hardAlpha" operator="arithmetic" k2="-1" k3="1"/>
<feColorMatrix type="matrix" values="0 0 0 0 1 0 0 0 0 1 0 0 0 0 1 0 0 0 0.4 0"/>
<feBlend mode="normal" in2="shape" result="effect1_innerShadow_120_6410"/>
</filter>
<filter id="filter4_i_120_6410" x="26" y="165.04" width="247" height="108.953" filterUnits="userSpaceOnUse" color-interpolation-filters="sRGB">
<feFlood flood-opacity="0" result="BackgroundImageFix"/>
<feBlend mode="normal" in="SourceGraphic" in2="BackgroundImageFix" result="shape"/>
<feColorMatrix in="SourceAlpha" type="matrix" values="0 0 0 0 0 0 0 0 0 0 0 0 0 0 0 0 0 0 127 0" result="hardAlpha"/>
<feOffset dy="2"/>
<feGaussianBlur stdDeviation="2"/>
<feComposite in2="hardAlpha" operator="arithmetic" k2="-1" k3="1"/>
<feColorMatrix type="matrix" values="0 0 0 0 1 0 0 0 0 1 0 0 0 0 1 0 0 0 0.4 0"/>
<feBlend mode="normal" in2="shape" result="effect1_innerShadow_120_6410"/>
</filter>
<linearGradient id="paint0_linear_120_6410" x1="74" y1="-32.5" x2="199" y2="246.5" gradientUnits="userSpaceOnUse">
<stop stop-color="#F1D6FE"/>
<stop offset="1" stop-color="#B7D8FE"/>
</linearGradient>
<linearGradient id="paint1_linear_120_6410" x1="74" y1="120.354" x2="109.46" y2="279.279" gradientUnits="userSpaceOnUse">
<stop stop-color="#E4ADFF"/>
<stop offset="1" stop-color="#8FC3FF"/>
</linearGradient>
<linearGradient id="paint2_linear_120_6410" x1="225" y1="120.354" x2="189.54" y2="279.279" gradientUnits="userSpaceOnUse">
<stop stop-color="#F1D6FE"/>
<stop offset="1" stop-color="#B7D8FE"/>
</linearGradient>
<linearGradient id="paint3_linear_120_6410" x1="225" y1="120.354" x2="189.54" y2="279.279" gradientUnits="userSpaceOnUse">
<stop stop-color="#E4ADFF"/>
<stop offset="1" stop-color="#8FC3FF"/>
</linearGradient>
<linearGradient id="paint4_linear_120_6410" x1="48.8798" y1="69.9275" x2="374.503" y2="361.681" gradientUnits="userSpaceOnUse">
<stop stop-color="#7BB2FF"/>
<stop offset="1" stop-color="#C96CFF"/>
</linearGradient>
<linearGradient id="paint5_linear_120_6410" x1="78.5" y1="136" x2="79.9832" y2="277.547" gradientUnits="userSpaceOnUse">
<stop stop-color="#E4ACFF"/>
<stop offset="0.684465" stop-color="#71B3FF"/>
<stop offset="1" stop-color="#338FFA"/>
</linearGradient>
<linearGradient id="paint6_linear_120_6410" x1="96.5" y1="106" x2="273" y2="153.5" gradientUnits="userSpaceOnUse">
<stop stop-color="#4177FC"/>
<stop offset="1" stop-color="#DB39F4"/>
</linearGradient>
</defs>
</svg>
